<svg xmlns="http://www.w3.org/2000/svg" viewBox="0 0 1200 600" role="img" aria-labelledby="title desc" data-demo-placeholder="true">
  <title id="title">Fonksiyonel category demo artwork</title>
  <desc id="desc">Modular graphite organizers arranged under crisp studio lights, created as a demo placeholder.</desc>
  <defs>
    <linearGradient id="bg" x1="0" y1="0" x2="1" y2="1">
      <stop stop-color="#080A0C"/>
      <stop offset=".55" stop-color="#1A1F23"/>
      <stop offset="1" stop-color="#0A0D0F"/>
    </linearGradient>
    <radialGradient id="cyan">
      <stop stop-color="#37E5FF" stop-opacity=".34"/>
      <stop offset="1" stop-color="#37E5FF" stop-opacity="0"/>
    </radialGradient>
    <linearGradient id="graphite" x1="0" y1="0" x2="1" y2="1">
      <stop stop-color="#59636A"/>
      <stop offset=".45" stop-color="#252C31"/>
      <stop offset="1" stop-color="#101417"/>
    </linearGradient>
    <linearGradient id="ivory" x1="0" y1="0" x2="1" y2="1">
      <stop stop-color="#FFF9EA"/>
      <stop offset="1" stop-color="#B8B3AA"/>
    </linearGradient>
  </defs>
  <rect width="1200" height="600" fill="url(#bg)"/>
  <ellipse cx="596" cy="270" rx="492" ry="348" fill="url(#cyan)"/>
  <path d="M0 487C260 451 914 451 1200 488V600H0Z" fill="#07090B"/>
  <ellipse cx="602" cy="493" rx="442" ry="34" fill="#000" fill-opacity=".48"/>
  <path d="M171 325h288v166H171Z" fill="url(#graphite)"/>
  <path d="M199 350h106v113H199Zm130 0h102v113H329Z" fill="#0E1215"/>
  <path d="M199 350h106l-18 18h-70Zm130 0h102l-18 18h-66Z" fill="#3EE7FF" fill-opacity=".58"/>
  <path d="M487 211h268v280H487Z" fill="url(#ivory)"/>
  <path d="M515 243h212v90H515Zm0 117h212v103H515Z" fill="#20262A"/>
  <path d="M538 271h108v15H538Zm0 119h143v15H538" fill="#36E5FF"/>
  <circle cx="697" cy="278" r="11" fill="#FF9E61"/>
  <path d="M783 283h244v208H783Z" fill="url(#graphite)"/>
  <path d="M811 311h188v152H811Z" fill="#111518"/>
  <path d="M842 434V322h20v112m39 0V322h20v112m39 0V322h20v112" stroke="#7C868B" stroke-width="6"/>
  <path d="M828 391h155" stroke="#FFAA68" stroke-width="12" stroke-linecap="round"/>
  <path d="M140 491h919l39 35H101Z" fill="#30373C"/>
  <path d="M131 526h938l-34 74H165Z" fill="#14181B"/>
</svg>
